<?xml version="1.0" encoding="UTF-8"?>
<svg width="10px" height="15px" viewBox="0 0 10 15" version="1.1" xmlns="http://www.w3.org/2000/svg" xmlns:xlink="http://www.w3.org/1999/xlink">
    <!-- Generator: Sketch 47.1 (45422) - http://www.bohemiancoding.com/sketch -->
    <title>Group 4</title>
    <desc>Created with Sketch.</desc>
    <defs></defs>
    <g id="Page-1" stroke="none" stroke-width="1" fill="none" fill-rule="evenodd">
        <g id="Group-4" transform="translate(0.000000, -6.000000)" fill="#FFFFFF">
            <path d="M9.59822573,10.8571391 C9.59822573,10.7857105 9.5625114,10.7053532 9.50893991,10.6517817 L5.34822066,6.49106248 C5.29464917,6.43749098 5.21429193,6.40177666 5.14286327,6.40177666 C5.07143462,6.40177666 4.99107738,6.43749098 4.93750589,6.49106248 L0.77678664,10.6517817 C0.723215148,10.7053532 0.68750082,10.7857105 0.68750082,10.8571391 C0.68750082,10.9285678 0.723215148,11.008925 0.77678664,11.0624965 L1.22321574,11.5089256 C1.27678724,11.5624971 1.35714447,11.5982114 1.42857313,11.5982114 C1.50000179,11.5982114 1.58035903,11.5624971 1.63393052,11.5089256 L5.14286327,7.99999285 L8.65179603,11.5089256 C8.70536752,11.5624971 8.78572476,11.5982114 8.85715342,11.5982114 C8.93751065,11.5982114 9.00893931,11.5624971 9.0625108,11.5089256 L9.50893991,11.0624965 C9.5625114,11.008925 9.59822573,10.9285678 9.59822573,10.8571391 Z" id=""></path>
            <path d="M9.59822573,15.8571343 C9.59822573,15.7857057 9.5625114,15.7053484 9.50893991,15.651777 L9.0625108,15.2053479 C9.00893931,15.1517764 8.92858207,15.116062 8.85715342,15.116062 C8.78572476,15.116062 8.70536752,15.1517764 8.65179603,15.2053479 L5.14286327,18.7142806 L1.63393052,15.2053479 C1.58035903,15.1517764 1.50000179,15.116062 1.42857313,15.116062 C1.34821589,15.116062 1.27678724,15.1517764 1.22321574,15.2053479 L0.77678664,15.651777 C0.723215148,15.7053484 0.68750082,15.7857057 0.68750082,15.8571343 C0.68750082,15.928563 0.723215148,16.0089202 0.77678664,16.0624917 L4.93750589,20.223211 C4.99107738,20.2767825 5.07143462,20.3124968 5.14286327,20.3124968 C5.21429193,20.3124968 5.29464917,20.2767825 5.34822066,20.223211 L9.50893991,16.0624917 C9.5625114,16.0089202 9.59822573,15.928563 9.59822573,15.8571343 Z" id=""></path>
        </g>
    </g>
</svg>