<?xml version="1.0" encoding="UTF-8"?>
<svg width="10px" height="6px" viewBox="0 0 10 6" version="1.1" xmlns="http://www.w3.org/2000/svg" xmlns:xlink="http://www.w3.org/1999/xlink">
    <!-- Generator: Sketch 47.1 (45422) - http://www.bohemiancoding.com/sketch -->
    <title>Group 4 Copy 2</title>
    <desc>Created with Sketch.</desc>
    <defs></defs>
    <g id="Page-1" stroke="none" stroke-width="1" fill="none" fill-rule="evenodd">
        <g id="Group-4-Copy-2" transform="translate(0.000000, -6.000000)" fill="#FFFFFF">
            <path d="M9.59822573,6.85713434 C9.59822573,6.78570569 9.5625114,6.70534845 9.50893991,6.65177695 L9.0625108,6.20534785 C9.00893931,6.15177636 8.92858207,6.11606203 8.85715342,6.11606203 C8.78572476,6.11606203 8.70536752,6.15177636 8.65179603,6.20534785 L5.14286327,9.71428061 L1.63393052,6.20534785 C1.58035903,6.15177636 1.50000179,6.11606203 1.42857313,6.11606203 C1.34821589,6.11606203 1.27678724,6.15177636 1.22321574,6.20534785 L0.77678664,6.65177695 C0.723215148,6.70534845 0.68750082,6.78570569 0.68750082,6.85713434 C0.68750082,6.928563 0.723215148,7.00892024 0.77678664,7.06249173 L4.93750589,11.223211 C4.99107738,11.2767825 5.07143462,11.3124968 5.14286327,11.3124968 C5.21429193,11.3124968 5.29464917,11.2767825 5.34822066,11.223211 L9.50893991,7.06249173 C9.5625114,7.00892024 9.59822573,6.928563 9.59822573,6.85713434 Z" id=""></path>
        </g>
    </g>
</svg>